<?xml version="1.0" encoding="UTF-8"?>
<!-- Generator: Adobe Illustrator 16.0.4, SVG Export Plug-In . SVG Version: 6.00 Build 0)  -->
<!DOCTYPE svg PUBLIC "-//W3C//DTD SVG 1.1//EN" "http://www.w3.org/Graphics/SVG/1.1/DTD/svg11.dtd">
<svg version="1.1" id="Layer_1" xmlns="http://www.w3.org/2000/svg" xmlns:xlink="http://www.w3.org/1999/xlink" x="0px" y="0px" width="64px" height="104px" viewBox="40 0 60 104" enable-background="new 0 0 60 104" xml:space="preserve">
<g>
	<path fill="#FFFFFF" d="M40.355,80.629c-1.229,0-2.225-0.997-2.225-2.226s0.996-2.226,2.225-2.226h16.764   c1.229,0,2.227,0.997,2.227,2.226s-0.997,2.226-2.227,2.226H40.355z"/>
	<path fill="#FFFFFF" d="M40.354,71.823c-1.229,0-2.226-0.995-2.226-2.224c0-1.23,0.997-2.226,2.226-2.226h16.766   c1.229,0,2.227,0.995,2.227,2.226c0,1.229-0.997,2.224-2.227,2.224H40.354z"/>
	<path fill="#FFFFFF" d="M40.355,63.02c-1.229,0-2.227-0.997-2.227-2.227c0-1.229,0.998-2.226,2.227-2.226h16.766   c1.229,0,2.223,0.997,2.223,2.226c0,1.229-0.993,2.227-2.223,2.227H40.355z"/>
	<path fill="#FFFFFF" d="M40.355,45.422c-1.23,0-2.225-0.997-2.225-2.229c0-1.228,0.994-2.224,2.225-2.224h16.766   c1.229,0,2.225,0.996,2.225,2.224c0,1.231-0.995,2.229-2.225,2.229H40.355z"/>
	<path fill="#FFFFFF" d="M40.354,36.623c-1.229,0-2.226-0.997-2.226-2.227c0-1.231,0.997-2.225,2.226-2.225h16.766   c1.23,0,2.228,0.993,2.228,2.225c0,1.229-0.997,2.227-2.228,2.227H40.354z"/>
	<path fill="#FFFFFF" d="M40.354,27.821c-1.227,0-2.225-0.997-2.225-2.226c0-1.23,0.998-2.226,2.225-2.226h16.766   c1.229,0,2.228,0.995,2.228,2.226c0,1.229-0.998,2.226-2.228,2.226H40.354z"/>
	<path fill="#FFFFFF" d="M82.881,80.629c-1.229,0-2.225-0.997-2.225-2.226s0.996-2.226,2.225-2.226h16.766   c1.229,0,2.227,0.997,2.227,2.226s-0.998,2.226-2.227,2.226H82.881z"/>
	<path fill="#FFFFFF" d="M82.881,71.823c-1.23,0-2.225-0.995-2.225-2.224c0-1.23,0.994-2.226,2.225-2.226h16.766   c1.229,0,2.227,0.995,2.227,2.226c0,1.229-0.998,2.224-2.227,2.224H82.881z"/>
	<path fill="#FFFFFF" d="M82.881,63.02c-1.23,0-2.225-0.997-2.225-2.227c0-1.229,0.994-2.226,2.225-2.226h16.766   c1.229,0,2.227,0.997,2.227,2.226c0,1.229-0.998,2.227-2.227,2.227H82.881z"/>
	<path fill="#FFFFFF" d="M40.355,54.221c-1.229,0-2.225-0.995-2.225-2.222c0-1.23,0.996-2.229,2.225-2.229h59.291   c1.229,0,2.227,0.998,2.227,2.229c0,1.227-0.998,2.222-2.227,2.222H40.355z"/>
	<path fill="#FFFFFF" d="M82.881,45.422c-1.23,0-2.225-0.997-2.225-2.229c0-1.228,0.994-2.224,2.225-2.224h16.766   c1.227,0,2.227,0.996,2.227,2.224c0,1.231-1,2.229-2.227,2.229H82.881z"/>
	<path fill="#FFFFFF" d="M82.881,36.623c-1.229,0-2.227-0.997-2.227-2.227c0-1.231,0.998-2.225,2.227-2.225h16.764   c1.23,0,2.229,0.993,2.229,2.225c0,1.229-0.998,2.227-2.229,2.227H82.881z"/>
	<path fill="#FFFFFF" d="M82.881,27.821c-1.23,0-2.225-0.997-2.225-2.226c0-1.23,0.994-2.226,2.225-2.226h16.764   c1.232,0,2.229,0.995,2.229,2.226c0,1.229-0.996,2.226-2.229,2.226H82.881z"/>
</g>
</svg>